<svg xmlns="http://www.w3.org/2000/svg" width="941" height="335" viewBox="0 0 941 335" style="background:#fff">
  <path fill="#4A4A4A" d="M34.1789687,0.00056314576 C33.6733097,-0.00016821237 33.1458837,0.0208949017 32.5958673,0.0649226612 C18.6948312,1.18813516 22.3814765,15.9221345 22.1751657,20.8560812 C21.9212974,24.4642367 21.1921311,27.3077132 18.718712,30.8351192 C15.8128143,34.3021077 11.7216388,39.9134677 9.78354751,45.7547008 C8.86885326,48.5115113 8.43359003,51.3214404 8.83556885,53.9808561 C8.70964795,54.0939899 8.58977015,54.2125211 8.47578236,54.3346141 C7.62261249,55.2484388 6.99221343,56.3556783 6.28979291,57.101159 C5.63355214,57.7579333 4.69855628,58.0077505 3.6710916,58.377591 C2.6432187,58.7475996 1.51469801,59.2930978 0.829685111,60.6119193 C0.829685111,60.6119193 0.829685111,60.6124386 0.829167548,60.6124386 C0.828438586,60.6146328 0.826251699,60.6168268 0.825522738,60.6190208 C0.205409324,61.7810538 0.389763819,63.1192344 0.579148153,64.3590473 C0.768539777,65.5988237 0.960264078,66.7703644 0.705768856,67.5652117 C-0.107709024,69.7960077 -0.211578823,71.3390781 0.361093743,72.4583706 C0.934983674,73.5799887 2.11494722,74.075045 3.44856137,74.3544969 C6.11579697,74.9134009 9.727935,74.7745306 12.5747139,76.2883103 L12.8194046,75.8250973 L12.5772507,76.2896852 C15.624866,77.8883172 18.7145569,78.4561217 21.1795784,77.8912279 C22.9667675,77.4816893 24.4175404,76.4140234 25.1625979,74.771159 C27.0906441,74.7617244 29.2063397,73.9423767 32.5954081,73.7551636 C34.8945543,73.5693547 37.7666064,74.5742921 41.0701602,74.3902604 C41.1565131,74.7498472 41.2814936,75.0957066 41.4525663,75.4243788 C41.4547533,75.4280357 41.4562112,75.430961 41.4576692,75.4343985 C42.7383023,78.0036595 45.1178093,79.1788131 47.6536349,78.9780333 C50.1928064,78.776983 52.8924589,77.2748611 55.0747089,74.6692955 L54.6746472,74.3319932 L55.0777705,74.6656021 C57.1577835,72.1352054 60.6102641,71.0859624 62.8995403,69.7006677 C64.0441783,69.0080131 64.9729635,68.1407175 65.0447297,66.8810115 C65.1164596,65.6219201 64.3796831,64.2109327 62.6855025,62.3241312 L62.6849849,62.3236119 C62.6844674,62.3228805 62.683527,62.3221492 62.6827981,62.3206864 C62.1261481,61.689561 61.8605944,60.5198413 61.5752131,59.2741922 C61.2900286,58.0293036 60.9716981,56.6864132 59.9530029,55.8161409 C59.9508161,55.8139467 59.9486291,55.8124841 59.9471712,55.8110214 C59.5417517,55.4565832 59.1204409,55.2160248 58.6961631,55.0544021 C60.1124706,50.8401995 59.5567757,46.6438786 58.1270988,42.8518598 C56.3724946,38.1980014 53.3092138,34.1428765 50.9697341,31.3688206 C48.3510693,28.0549198 45.7897811,24.908639 45.8402398,20.2616846 C45.9182388,13.1694196 46.617809,0.0170333308 34.1784511,0 L34.1789687,0.00056314576 Z M35.8630168,10.9268854 C36.568878,10.9268854 37.1717296,11.1344668 37.7909974,11.5854149 C38.4200989,12.0435157 38.8733238,12.6169955 39.2386066,13.4178327 C39.5971175,14.1983088 39.7696117,14.9618028 39.7865309,15.8678458 C39.7865309,15.891615 39.7865309,15.9119467 39.7930916,15.9357159 C39.7996523,16.8654915 39.6408916,17.6561481 39.2891384,18.4637723 C39.0884187,18.9246083 38.8579208,19.3113945 38.5820306,19.646254 C38.4883663,19.6011292 38.3911008,19.5577598 38.2902125,19.5161382 C37.5908973,19.2156376 37.0544395,19.0244022 36.6073307,18.8687472 C36.7694008,18.6732917 36.9043537,18.4414804 37.0230286,18.1516871 C37.202295,17.7139473 37.2902296,17.2863734 37.3071416,16.7773775 C37.3071416,16.7570456 37.3137023,16.7400051 37.3137023,16.716309 C37.3238348,16.227674 37.2596133,15.8102806 37.1175312,15.382714 C36.9687063,14.9347938 36.7793075,14.612433 36.5053416,14.3443537 C36.2313832,14.0762671 35.9574174,13.9541156 35.6293335,13.9439278 C35.6139523,13.9431965 35.5986441,13.9431965 35.5834818,13.9431965 C35.274883,13.9439278 35.0069164,14.0502966 34.7296777,14.2831683 C34.4387999,14.5275004 34.222342,14.8396733 34.0430757,15.2740269 C33.8638166,15.7083732 33.7758745,16.139326 33.7589772,16.6517374 C33.7553324,16.6720692 33.7553324,16.6891098 33.7553324,16.7094416 C33.7495008,16.9910949 33.7672875,17.2491107 33.8105878,17.4996668 C33.179139,17.1839907 32.58408,16.9687739 32.0256149,16.8354106 C31.9937592,16.5931264 31.9753894,16.343097 31.9694849,16.081673 L31.9694849,16.0104387 C31.9593522,15.0840493 32.1115376,14.2900065 32.4666733,13.4823897 C32.821809,12.6747655 33.2615044,12.0944913 33.8804514,11.6228165 C34.4994058,11.1511417 35.1082058,10.9339649 35.8286316,10.9271852 L35.8623097,10.9271852 L35.8630168,10.9268854 Z M26.201828,11.6943141 C26.6700913,11.6950455 27.0890914,11.8523825 27.5224885,12.1996167 C27.9926325,12.5762662 28.347761,13.0581215 28.6453961,13.7367999 C28.9430385,14.4154783 29.1020033,15.0941494 29.1459671,15.8949865 L29.1459671,15.9015688 C29.1672528,16.2379131 29.1646285,16.554518 29.1382401,16.8611399 C29.0456254,16.887542 28.9548697,16.916138 28.8659727,16.9468332 C28.3610718,17.1211962 27.9161061,17.3588217 27.528291,17.6157551 C27.5662699,17.3469957 27.5718829,17.0743015 27.5427974,16.7702613 C27.5391525,16.7532938 27.5391525,16.7396906 27.5391525,16.7227962 C27.4985494,16.3189914 27.4140116,15.9796559 27.2719515,15.6369195 C27.1197516,15.2806238 26.9506396,15.029512 26.7274096,14.8360824 C26.525108,14.6607978 26.3339669,14.5803118 26.1236759,14.5818988 C26.1019529,14.5818988 26.0799383,14.5826302 26.0577049,14.5848243 C25.8209453,14.605156 25.6247743,14.7205424 25.4387505,14.947907 C25.2527266,15.175257 25.1309682,15.4569103 25.0430334,15.8301663 C24.9550915,16.2034441 24.9314148,16.569935 24.9686138,16.9907074 C24.9686138,17.0076748 24.9722586,17.021278 24.9722586,17.0381724 C25.0128618,17.4453781 25.094017,17.7847063 25.2394524,18.1274499 C25.3882772,18.4803594 25.5607641,18.731464 25.7839941,18.9248789 C25.8213899,18.9572781 25.8583629,18.9863862 25.8951827,19.0123714 C25.6629938,19.1916564 25.5521187,19.2743145 25.361845,19.414589 C25.2398095,19.5044291 25.094469,19.6113975 24.9255467,19.7363208 C24.5571439,19.3900813 24.2697433,18.9549159 24.0184628,18.3819479 C23.7208203,17.7032768 23.5618555,17.0245984 23.5145022,16.2237613 L23.5145022,16.2171791 C23.4705457,15.4163565 23.5483261,14.7274903 23.7681737,14.0148915 C23.9880213,13.3022781 24.2822815,12.7864951 24.7084399,12.3623074 C25.1346058,11.9381489 25.5641465,11.7243656 26.0816368,11.6972249 C26.122094,11.6950308 26.1621287,11.6942995 26.201806,11.6942995 L26.201828,11.6943141 Z M30.5956902,17.2502078 C31.6840306,17.2458196 32.9937056,17.6039729 34.5792346,18.6267554 C35.5531497,19.2621667 36.3109639,19.3152706 38.0559823,20.0651102 L38.0581693,20.0658415 L38.0603562,20.0665729 C38.8999601,20.4121908 39.3927602,20.8626854 39.633529,21.3370589 C39.874298,21.8114544 39.8801807,22.3258844 39.6786519,22.8670456 C39.2756161,23.9494044 37.9891367,25.0884653 36.183833,25.6540685 L36.1823751,25.6547999 L36.1809171,25.6555312 C35.3006663,25.942465 34.533084,26.5761063 33.628165,27.0952682 C32.7232754,27.6144082 31.6993169,28.033118 30.3070141,27.9523103 C30.3070141,27.952303 30.3070141,27.9523103 30.3070141,27.9523103 C29.1217218,27.8829774 28.4131999,27.4792897 27.7725444,26.9627169 C27.1318814,26.4461368 26.5735914,25.7971661 25.7560896,25.315552 L25.7539026,25.3140895 L25.7517157,25.3126267 C24.4349043,24.5659027 23.7159946,23.7022345 23.4903663,22.9534994 C23.2647307,22.2047642 23.4765159,21.5656596 24.129819,21.0744136 C24.8643576,20.5221286 25.3746092,20.1464445 25.7145023,19.896181 C26.0521575,19.6475997 26.1926357,19.5543882 26.300165,19.4507986 C26.3006826,19.4500673 26.3008939,19.4500673 26.3016228,19.4493358 L26.3021332,19.4486045 C26.8540521,18.9244694 27.7338438,17.9695424 29.0600371,17.5115367 C29.5164912,17.3538925 30.025817,17.2521825 30.5959017,17.2499225 L30.5956902,17.2502078 Z M38.2061704,21.7660444 C37.7365148,21.7942016 37.2446404,22.036742 36.6719022,22.357545 C36.0991641,22.6783478 35.4551043,23.0887203 34.7571231,23.4928394 C33.361168,24.3010779 31.754237,25.074043 30.1572633,25.074043 C28.5578186,25.074043 27.2799409,24.3329212 26.3214797,23.5708899 C25.8422456,23.189867 25.446718,22.8060796 25.130713,22.509192 C24.9727178,22.3607337 24.8356948,22.2342159 24.7078276,22.1353875 C24.5799895,22.0365591 24.4759301,21.9385718 24.262009,21.9385718 L24.2518034,22.389571 C24.2364953,22.5404795 24.2207497,22.5358281 24.2269459,22.5399383 C24.2369326,22.5465206 24.2865751,22.5636343 24.3444765,22.6084665 C24.4384835,22.6810905 24.5689602,22.7995484 24.7238211,22.9450449 C25.0335424,23.236045 25.4450925,23.6361345 25.9517866,24.0389885 C26.9651751,24.8446818 28.3745065,25.6712993 30.1572925,25.6712993 C31.9425716,25.6712993 33.6316495,24.8341063 35.0547947,24.0101364 C35.7663564,23.5981477 36.4126251,23.1868977 36.9621748,22.879091 C37.5116884,22.5712624 37.9740398,22.3782497 38.241722,22.3622329 L38.2062215,21.7660663 L38.2061704,21.7660444 Z M39.7930843,23.9094795 C40.9788285,28.5990063 43.7367251,35.3724723 45.509291,38.6780502 C46.4514818,40.4318251 48.3259492,44.1579777 49.1358115,48.6473319 C49.6489643,48.6315345 50.214012,48.7063524 50.8191087,48.8616417 C52.9365393,43.3542298 49.0235513,37.4220085 47.2342412,35.7699289 C46.5118399,35.066655 46.4771193,34.7515566 46.8352438,34.7664471 C48.7765717,36.4888687 51.3251105,39.9532169 52.2523356,43.863533 C52.6751336,45.6465694 52.765277,47.5210404 52.3116002,49.3709668 C52.5335472,49.463469 52.7589642,49.5640527 52.9874135,49.6725497 C56.3862937,51.333069 57.6433086,52.7770261 57.0389262,54.7477509 C56.8398685,54.7404374 56.6440548,54.7419001 56.4530593,54.7462881 C56.4352728,54.7468074 56.417559,54.7470196 56.3997723,54.7477509 C56.8919674,53.1856139 55.8015934,52.0334614 52.8960819,50.7145303 C49.8824946,49.3843287 47.4810968,49.5166753 47.0752327,52.2143994 C47.0492816,52.3557345 47.0283604,52.4997536 47.0124691,52.6457837 C46.7873292,52.7242218 46.5609499,52.8243741 46.3340096,52.9489609 C44.9189338,53.7257949 44.1465694,55.1353415 43.7169921,56.8641551 C43.287772,58.5915792 43.1647086,60.6799284 43.0462523,63.027471 L43.0462523,63.0289337 C42.9738664,64.2093602 42.490149,65.8059151 41.9995503,67.496954 C37.0628373,71.0299623 30.211141,72.5606511 24.393798,68.5775137 C23.9995535,67.9518076 23.5473055,67.3318573 23.0817903,66.7204127 C22.7845268,66.3299185 22.4791575,65.9418525 22.1755665,65.5592061 C22.7727468,65.5592061 23.2803522,65.4615698 23.6905975,65.2749271 C24.200769,65.0428379 24.5592213,64.6700648 24.7365633,64.1914786 C25.0912324,63.234343 24.7351053,61.8841169 23.5995939,60.3422311 C22.4642501,58.800455 20.5413869,57.0604151 17.7158571,55.321867 C17.7158571,55.321867 17.7153395,55.321867 17.7153395,55.3213477 C15.63954,54.0256664 14.4786388,52.4375588 13.9352559,50.713265 C13.3918221,48.9888175 13.4680205,47.1241395 13.8868529,45.2831356 C14.6907449,41.7493887 16.756266,38.3125394 18.0741783,36.1557204 C18.4290006,35.8937844 18.2009521,36.6419272 16.7399883,39.3638302 C15.4306414,41.8524152 12.982816,47.5955219 16.3343283,52.0785644 C16.4238959,48.8882046 17.1833066,45.6344363 18.4581665,42.5909185 C20.3151171,38.3678082 24.1991579,31.0444047 24.5076401,25.2075525 C24.6666923,25.3234288 25.2132461,25.6934155 25.456785,25.8323663 C25.4573026,25.8330978 25.4575139,25.8330978 25.458243,25.8330978 C26.1707742,26.2540747 26.7059197,26.8694468 27.3990169,27.4282995 C28.0934917,27.9882565 28.9610731,28.471911 30.2718125,28.5485353 C31.8017214,28.6373589 32.9677327,28.1619394 33.9230593,27.613867 C34.8769426,27.0666355 35.6389703,26.4610053 36.3609271,26.224601 C36.361656,26.2238697 36.3631139,26.2238697 36.3638428,26.2238697 C37.8893854,25.7452396 39.1023491,24.8980929 39.7925959,23.9100207 L39.7930843,23.9094795 Z M49.4825934,50.7569418 C50.100498,50.7540163 50.8490181,50.9607566 51.6683713,51.3285054 C53.8735909,52.3499128 54.5635753,53.2254071 53.9615328,54.5114857 C53.4542045,55.4819979 51.2827941,57.0259753 49.7946036,56.6187771 C48.2759789,56.2251455 47.5352588,54.0296304 47.7821655,52.3702884 C47.9144138,51.2434703 48.5496678,50.7613152 49.4825934,50.7569418 Z M46.9875458,53.789233 C47.1122057,55.8184006 48.1128591,57.8879175 49.8825383,58.3358158 C51.819128,58.8477445 54.6112931,57.1806649 55.7901705,55.8209093 C56.0252389,55.8114747 56.2550515,55.7998461 56.478245,55.7945072 C57.5123432,55.7694217 58.379677,55.8286617 59.2658542,56.6062563 L59.26877,56.6091817 L59.2716859,56.612107 C59.9526895,57.1909625 60.2763923,58.2848841 60.5571521,59.510355 C60.83789,60.7358334 61.0623956,62.0705108 61.9043469,63.0213202 L61.9058046,63.0227829 L61.9065337,63.0242456 C63.5252012,64.8263706 64.0454832,66.0444841 64.001206,66.8219398 C63.9568851,67.5994465 63.3958249,68.1766198 62.3597585,68.8035693 C60.2885222,70.0569416 56.6185848,71.1468333 54.2744907,73.9955171 C52.239083,76.4257398 49.7571277,77.7604538 47.5712986,77.9335296 C45.3854696,78.1066055 43.4996157,77.1963937 42.3877881,74.9575383 L42.3848724,74.9524188 L42.3819565,74.9472993 C41.6922126,73.6308986 41.9795404,71.5534393 42.5605813,69.3621293 C43.1416297,67.1708269 43.9764443,64.9208036 44.0881942,63.0920351 L44.0881942,63.0891098 L44.0881942,63.0861844 C44.2064099,60.74303 44.3371347,58.696763 44.7294475,57.1178997 C45.1217675,55.5390365 45.7395046,54.4697324 46.8340555,53.8688559 C46.8850101,53.840918 46.935622,53.814516 46.9859349,53.7895327 L46.9875458,53.789233 Z M11.4432847,53.9423575 C11.6066524,53.9428767 11.7795403,53.956692 11.9637271,53.984703 C13.2027074,54.1730059 14.2831458,55.0421299 15.3240963,56.4586755 C16.365054,57.8752431 17.3336478,59.8089393 18.329337,61.9539249 L18.3307949,61.9568504 L18.3315238,61.9597758 C19.1316544,63.6352588 20.8200763,65.4775792 22.2509122,67.3570159 C23.6817406,69.2364528 24.7891141,71.1229764 24.6449109,72.5668968 L24.6443933,72.573479 L24.6438757,72.5800612 C24.4573343,75.042727 23.0727147,76.3833722 20.9471781,76.8704567 C18.8222757,77.357373 15.9416583,76.8733822 13.0644306,75.363369 L13.0615148,75.363369 C9.87826155,73.6718473 6.09139861,73.8398476 3.66223471,73.3308443 C2.44732474,73.0762585 1.65459312,72.6935022 1.29075359,71.9823661 C0.926892197,71.2712667 0.918764269,70.0306272 1.691967,67.915247 L1.69561181,67.9058126 L1.69852766,67.896378 C2.08090469,66.7130259 1.79792163,65.4182368 1.61227687,64.2029244 C1.42663211,62.9876118 1.33583989,61.8821861 1.74946753,61.1116857 L1.75165441,61.1080289 L1.75384129,61.104372 C2.28341762,60.0802001 3.06020684,59.7140895 4.02428099,59.367082 C4.98835514,59.0200453 6.13153526,58.7475119 7.03426724,57.8398453 L7.03864102,57.8354572 L7.04301478,57.831069 C7.87755967,56.9477859 8.50443056,55.8405974 9.2380944,55.0547677 C9.85712165,54.3917258 10.4766082,53.9522819 11.4103429,53.9457728 L11.4429275,53.9457728 L11.4432847,53.9423575 Z M97.5766777,66.9367262 L97.5766777,11.3086461 L109.115404,11.3086461 L109.115404,59.0435527 L134.103491,59.0435527 L134.103491,66.9367262 L97.5766777,66.9367262 Z M143.86352,66.9367262 L143.86352,25.6667046 L154.952686,25.6667046 L154.952686,66.9367262 L143.86352,66.9367262 Z M143.86352,18.7131947 L143.86352,9.42931909 L154.952686,9.42931909 L154.952686,18.7131947 L143.86352,18.7131947 Z M167.146208,66.9367262 L167.146208,25.6667046 L178.235373,25.6667046 L178.235373,33.4471186 C181.856853,27.6337046 186.527243,24.7270412 192.246685,24.7270412 C195.918116,24.7270412 198.815257,25.8922123 200.938192,28.2225895 C203.061129,30.5529666 204.122582,33.7352619 204.122582,37.7695707 L204.122582,66.9367262 L193.033417,66.9367262 L193.033417,40.5133881 C193.033417,35.827576 191.484943,33.4847051 188.387954,33.4847051 C184.866378,33.4847051 181.482218,35.9779207 178.235373,40.9644267 L178.235373,66.9367262 L167.146208,66.9367262 Z M242.972125,66.9367262 L242.972125,59.1563123 C239.37562,64.9697263 234.705231,67.8763897 228.960815,67.8763897 C225.289384,67.8763897 222.392243,66.7112186 220.269306,64.3808414 C218.146369,62.0504644 217.084917,58.8681691 217.084917,54.8338601 L217.084917,25.6667046 L228.174083,25.6667046 L228.174083,52.0900427 C228.174083,56.7758549 229.735043,59.1187258 232.857008,59.1187258 C236.35361,59.1187258 239.725281,56.6255101 242.972125,51.6390042 L242.972125,25.6667046 L254.061292,25.6667046 L254.061292,66.9367262 L242.972125,66.9367262 Z M263.539531,66.9367262 L277.663231,46.2265423 L264.138945,25.6667046 L276.764111,25.6667046 L285.605472,38.7468208 L294.0722,25.6667046 L303.063416,25.6667046 L290.176008,45.92585 L304,66.9367262 L291.374836,66.9367262 L282.15884,53.292812 L272.718064,66.9367262 L263.539531,66.9367262 Z" transform="translate(319 154)"/>
</svg>
